<svg preserveAspectRatio="none" overflow="visible" style="display: block;" width="119.499" height="13.4189" viewBox="0 0 119.499 13.4189" fill="none" xmlns="http://www.w3.org/2000/svg">
<path id="Vector" d="M5.7353 7.9365C5.7353 7.7314 5.7034 7.5492 5.6396 7.3896C5.5804 7.2301 5.4733 7.0843 5.3184 6.9521C5.1634 6.82 4.9447 6.6924 4.6621 6.5693C4.3841 6.4417 4.0286 6.3118 3.5957 6.1797C3.1217 6.0339 2.6842 5.8721 2.2832 5.6943C1.8867 5.512 1.5404 5.3024 1.2441 5.0654C0.947902 4.8239 0.717799 4.5482 0.553699 4.2383C0.389599 3.9238 0.307602 3.5615 0.307602 3.1514C0.307602 2.7458 0.391901 2.3766 0.560501 2.0439C0.733701 1.7113 0.9775 1.4242 1.292 1.1826C1.611 0.9365 1.987 0.7474 2.4199 0.6152C2.8529 0.4785 3.3314 0.4102 3.8555 0.4102C4.5937 0.4102 5.2295 0.5469 5.7627 0.8203C6.3005 1.0938 6.7129 1.4606 7 1.9209C7.2917 2.3812 7.4375 2.8893 7.4375 3.4453H5.7353C5.7353 3.1172 5.6647 2.8278 5.5234 2.5771C5.3867 2.3219 5.1771 2.1214 4.8945 1.9756C4.6165 1.8298 4.2633 1.7568 3.835 1.7568C3.4294 1.7568 3.0921 1.8184 2.8232 1.9414C2.5544 2.0645 2.3538 2.2308 2.2217 2.4404C2.0895 2.6501 2.0234 2.887 2.0234 3.1514C2.0234 3.3382 2.0667 3.5091 2.1533 3.6641C2.2399 3.8145 2.3721 3.9557 2.5498 4.0879C2.7275 4.2155 2.9508 4.3363 3.2197 4.4502C3.4886 4.5641 3.8053 4.6735 4.1699 4.7783C4.7213 4.9424 5.2021 5.1247 5.6123 5.3252C6.0225 5.5212 6.3643 5.7445 6.6377 5.9951C6.9111 6.2458 7.1162 6.5306 7.2529 6.8496C7.3896 7.1641 7.458 7.5218 7.458 7.9229C7.458 8.3421 7.3737 8.7204 7.2051 9.0576C7.0365 9.3903 6.7949 9.6751 6.4805 9.9121C6.1706 10.1445 5.7969 10.3245 5.3594 10.4521C4.9264 10.5752 4.4434 10.6367 3.9102 10.6367C3.4316 10.6367 2.96 10.5729 2.4951 10.4453C2.0348 10.3177 1.6156 10.124 1.2373 9.8643C0.859001 9.5999 0.558299 9.2718 0.334999 8.8799C0.111599 8.4834 0 8.0208 0 7.4922H1.7158C1.7158 7.8158 1.7705 8.0915 1.8799 8.3193C1.9938 8.5472 2.151 8.734 2.3516 8.8799C2.5521 9.0212 2.7845 9.126 3.0488 9.1943C3.3177 9.2627 3.6048 9.2969 3.9102 9.2969C4.3112 9.2969 4.6462 9.2399 4.915 9.126C5.1885 9.012 5.3935 8.8525 5.5303 8.6475C5.667 8.4424 5.7353 8.2054 5.7353 7.9365ZM10.5752 3.1035V10.5H8.9209V3.1035H10.5752ZM8.8115 1.1621C8.8115 0.9115 8.8935 0.7041 9.0576 0.54C9.2262 0.3714 9.4587 0.2871 9.7549 0.2871C10.0465 0.2871 10.2767 0.3714 10.4453 0.54C10.6139 0.7041 10.6982 0.9115 10.6982 1.1621C10.6982 1.4082 10.6139 1.6133 10.4453 1.7773C10.2767 1.9414 10.0465 2.0234 9.7549 2.0234C9.4587 2.0234 9.2262 1.9414 9.0576 1.7773C8.8935 1.6133 8.8115 1.4082 8.8115 1.1621ZM17.1172 3.1035H18.6143V10.2949C18.6143 10.9603 18.473 11.5254 18.1904 11.9902C17.9079 12.4551 17.5137 12.8083 17.0078 13.0498C16.5019 13.2959 15.9163 13.4189 15.251 13.4189C14.9684 13.4189 14.654 13.3779 14.3076 13.2959C13.9658 13.2139 13.6331 13.0817 13.3096 12.8994C12.9906 12.7217 12.724 12.487 12.5098 12.1953L13.2822 11.2246C13.5465 11.5391 13.8382 11.7692 14.1572 11.915C14.4762 12.0609 14.8112 12.1338 15.1621 12.1338C15.5404 12.1338 15.8616 12.0632 16.126 11.9219C16.3949 11.7852 16.6022 11.5824 16.748 11.3135C16.8939 11.0446 16.9668 10.7165 16.9668 10.3291V4.7783L17.1172 3.1035ZM12.0928 6.8838V6.7402C12.0928 6.1797 12.1611 5.6693 12.2978 5.209C12.4346 4.7441 12.6305 4.3454 12.8857 4.0127C13.1409 3.6755 13.4508 3.418 13.8154 3.2402C14.18 3.0579 14.5924 2.9668 15.0527 2.9668C15.5312 2.9668 15.9391 3.0534 16.2764 3.2266C16.6182 3.3997 16.903 3.6481 17.1309 3.9717C17.3587 4.2907 17.5365 4.6735 17.6641 5.1201C17.7962 5.5622 17.8942 6.0544 17.958 6.5967V7.0547C17.8988 7.5833 17.7985 8.0664 17.6572 8.5039C17.5159 8.9414 17.3291 9.3197 17.0967 9.6387C16.8643 9.9577 16.5771 10.2038 16.2353 10.377C15.8981 10.5501 15.4993 10.6367 15.0391 10.6367C14.5879 10.6367 14.18 10.5433 13.8154 10.3564C13.4554 10.1696 13.1455 9.9076 12.8857 9.5703C12.6305 9.2331 12.4346 8.8366 12.2978 8.3809C12.1611 7.9206 12.0928 7.4215 12.0928 6.8838ZM13.7402 6.7402V6.8838C13.7402 7.221 13.7721 7.5355 13.8359 7.8271C13.9043 8.1188 14.0068 8.3763 14.1435 8.5996C14.2848 8.8184 14.4626 8.9915 14.6768 9.1191C14.8955 9.2422 15.153 9.3037 15.4492 9.3037C15.8366 9.3037 16.1533 9.2217 16.3994 9.0576C16.6501 8.8936 16.8415 8.6725 16.9736 8.3945C17.1103 8.112 17.2061 7.7975 17.2607 7.4512V6.2139C17.2334 5.945 17.1764 5.6943 17.0898 5.4619C17.0078 5.2295 16.8962 5.0267 16.7549 4.8535C16.6136 4.6758 16.4359 4.5391 16.2217 4.4434C16.0075 4.3431 15.7546 4.293 15.4629 4.293C15.1667 4.293 14.9092 4.3568 14.6904 4.4844C14.4717 4.612 14.2917 4.7874 14.1504 5.0107C14.0137 5.234 13.9111 5.4938 13.8428 5.79C13.7744 6.0863 13.7402 6.403 13.7402 6.7402ZM21.957 4.6826V10.5H20.3096V3.1035H21.8613L21.957 4.6826ZM21.6631 6.5283L21.1299 6.5215C21.1344 5.9974 21.2074 5.5166 21.3486 5.0791C21.4945 4.6416 21.695 4.2656 21.9502 3.9512C22.21 3.6367 22.5199 3.3952 22.8799 3.2266C23.2399 3.0534 23.6409 2.9668 24.083 2.9668C24.4385 2.9668 24.7598 3.0169 25.0469 3.1172C25.3385 3.2129 25.5869 3.3701 25.792 3.5889C26.0016 3.8076 26.1611 4.0924 26.2705 4.4434C26.3799 4.7897 26.4346 5.2158 26.4346 5.7217V10.5H24.7803V5.7148C24.7803 5.3594 24.7279 5.0791 24.623 4.874C24.5228 4.6644 24.3747 4.5163 24.1787 4.4297C23.9873 4.3385 23.748 4.293 23.4609 4.293C23.1784 4.293 22.9255 4.3522 22.7021 4.4707C22.4788 4.5892 22.2897 4.751 22.1348 4.9561C21.9844 5.1611 21.8682 5.3981 21.7861 5.667C21.7041 5.9359 21.6631 6.223 21.6631 6.5283ZM33.3662 3.1035V10.5H31.7119V3.1035H33.3662ZM31.6025 1.1621C31.6025 0.9115 31.6846 0.7041 31.8486 0.54C32.0172 0.3714 32.2497 0.2871 32.5459 0.2871C32.8376 0.2871 33.0677 0.3714 33.2363 0.54C33.4049 0.7041 33.4893 0.9115 33.4893 1.1621C33.4893 1.4082 33.4049 1.6133 33.2363 1.7773C33.0677 1.9414 32.8376 2.0234 32.5459 2.0234C32.2497 2.0234 32.0172 1.9414 31.8486 1.7773C31.6846 1.6133 31.6025 1.4082 31.6025 1.1621ZM36.8047 4.6826V10.5H35.1572V3.1035H36.709L36.8047 4.6826ZM36.5107 6.5283L35.9775 6.5215C35.9821 5.9974 36.055 5.5166 36.1963 5.0791C36.3421 4.6416 36.5426 4.2656 36.7978 3.9512C37.0576 3.6367 37.3675 3.3952 37.7275 3.2266C38.0876 3.0534 38.4886 2.9668 38.9307 2.9668C39.2861 2.9668 39.6074 3.0169 39.8945 3.1172C40.1862 3.2129 40.4346 3.3701 40.6396 3.5889C40.8493 3.8076 41.0088 4.0924 41.1182 4.4434C41.2275 4.7897 41.2822 5.2158 41.2822 5.7217V10.5H39.6279V5.7148C39.6279 5.3594 39.5755 5.0791 39.4707 4.874C39.3704 4.6644 39.2223 4.5163 39.0264 4.4297C38.835 4.3385 38.5957 4.293 38.3086 4.293C38.026 4.293 37.7731 4.3522 37.5498 4.4707C37.3265 4.5892 37.1374 4.751 36.9824 4.9561C36.832 5.1611 36.7158 5.3981 36.6338 5.667C36.5518 5.9359 36.5107 6.223 36.5107 6.5283ZM48.46 8.8594L50.1689 3.1035H51.2217L50.9346 4.8262L49.2119 10.5H48.2685L48.46 8.8594ZM47.4551 3.1035L48.7881 8.8867L48.8975 10.5H47.8447L45.8418 3.1035H47.4551ZM52.8213 8.8184L54.1133 3.1035H55.7197L53.7236 10.5H52.6709L52.8213 8.8184ZM51.3994 3.1035L53.0879 8.791L53.2998 10.5H52.3564L50.6133 4.8193L50.3262 3.1035H51.3994ZM58.6043 3.1035V10.5H56.9502V3.1035H58.6043ZM56.8408 1.1621C56.8408 0.9115 56.9228 0.7041 57.0869 0.54C57.2555 0.3714 57.4883 0.2871 57.7843 0.2871C58.0763 0.2871 58.3063 0.3714 58.4743 0.54C58.6433 0.7041 58.7273 0.9115 58.7273 1.1621C58.7273 1.4082 58.6433 1.6133 58.4743 1.7773C58.3063 1.9414 58.0763 2.0234 57.7843 2.0234C57.4883 2.0234 57.2555 1.9414 57.0869 1.7773C56.9228 1.6133 56.8408 1.4082 56.8408 1.1621ZM63.7993 3.1035V4.3066H59.6303V3.1035H63.7993ZM60.8333 1.292H62.4803V8.4561C62.4803 8.6839 62.5123 8.8594 62.5763 8.9824C62.6443 9.1009 62.7383 9.1807 62.8563 9.2217C62.9753 9.2627 63.1143 9.2832 63.2733 9.2832C63.3873 9.2832 63.4963 9.2764 63.6013 9.2627C63.7063 9.249 63.7903 9.2354 63.8543 9.2217L63.8613 10.4795C63.7243 10.5205 63.5653 10.557 63.3833 10.5889C63.2053 10.6208 63.0003 10.6367 62.7673 10.6367C62.3893 10.6367 62.0543 10.5706 61.7623 10.4385C61.4713 10.3018 61.2433 10.0807 61.0793 9.7754C60.9153 9.4701 60.8333 9.0645 60.8333 8.5586V1.292ZM66.6983 0V10.5H65.0573V0H66.6983ZM66.4113 6.5283L65.8783 6.5215C65.8823 6.0111 65.9533 5.5394 66.0903 5.1064C66.2313 4.6735 66.4273 4.2975 66.6773 3.9785C66.9333 3.6549 67.2383 3.4066 67.5933 3.2334C67.9493 3.0557 68.3433 2.9668 68.7763 2.9668C69.1413 2.9668 69.4693 3.0169 69.7603 3.1172C70.0573 3.2174 70.3123 3.3792 70.5263 3.6025C70.7403 3.8213 70.9023 4.1084 71.0113 4.4639C71.1253 4.8148 71.1823 5.2432 71.1823 5.749V10.5H69.5283V5.7354C69.5283 5.3799 69.4763 5.0973 69.3713 4.8877C69.2713 4.6781 69.1223 4.5277 68.9263 4.4365C68.7303 4.3408 68.4913 4.293 68.2093 4.293C67.9123 4.293 67.6503 4.3522 67.4233 4.4707C67.1993 4.5892 67.0123 4.751 66.8623 4.9561C66.7123 5.1611 66.5983 5.3981 66.5203 5.667C66.4473 5.9359 66.4113 6.223 66.4113 6.5283ZM84.1433 5.4141V9.2148C84.0023 9.4017 83.7813 9.6068 83.4803 9.8301C83.1843 10.0488 82.7903 10.238 82.2983 10.3975C81.8053 10.557 81.1923 10.6367 80.4593 10.6367C79.8343 10.6367 79.2623 10.5319 78.7433 10.3223C78.2233 10.1081 77.7743 9.7959 77.3963 9.3857C77.0223 8.9756 76.7333 8.4766 76.5283 7.8887C76.3233 7.2962 76.2203 6.6217 76.2203 5.8652V5.1748C76.2203 4.4229 76.3143 3.7529 76.5013 3.165C76.6923 2.5726 76.9663 2.0713 77.3213 1.6611C77.6763 1.251 78.1053 0.9411 78.6063 0.7314C79.1123 0.5173 79.6843 0.4102 80.3223 0.4102C81.1383 0.4102 81.8123 0.5469 82.3453 0.8203C82.8833 1.0892 83.2983 1.4629 83.5903 1.9414C83.8813 2.4199 84.0663 2.9668 84.1433 3.582H82.4623C82.4073 3.2357 82.3003 2.9258 82.1403 2.6523C81.9853 2.3789 81.7623 2.1647 81.4703 2.0098C81.1833 1.8503 80.8103 1.7705 80.3493 1.7705C79.9533 1.7705 79.6043 1.8457 79.3033 1.9961C79.0033 2.1465 78.7523 2.3675 78.5513 2.6592C78.3553 2.9508 78.2073 3.3063 78.1073 3.7256C78.0073 4.1449 77.9573 4.6234 77.9573 5.1611V5.8652C77.9573 6.4121 78.0143 6.8975 78.1283 7.3213C78.2463 7.7451 78.4153 8.1029 78.6333 8.3945C78.8573 8.6862 79.1283 8.9072 79.4473 9.0576C79.7663 9.2035 80.1263 9.2764 80.5273 9.2764C80.9193 9.2764 81.2403 9.2445 81.4913 9.1807C81.7423 9.1123 81.9403 9.0326 82.0863 8.9414C82.2363 8.8457 82.3523 8.7546 82.4343 8.668V6.6924H80.3633V5.4141H84.1433ZM85.5653 6.8838V6.7266C85.5653 6.1934 85.6433 5.6989 85.7983 5.2432C85.9523 4.7829 86.1763 4.3841 86.4673 4.0469C86.7643 3.7051 87.1243 3.4408 87.5483 3.2539C87.9763 3.0625 88.4593 2.9668 88.9973 2.9668C89.5393 2.9668 90.0223 3.0625 90.4463 3.2539C90.8743 3.4408 91.2373 3.7051 91.5333 4.0469C91.8293 4.3841 92.0553 4.7829 92.2103 5.2432C92.3653 5.6989 92.4423 6.1934 92.4423 6.7266V6.8838C92.4423 7.417 92.3653 7.9115 92.2103 8.3672C92.0553 8.8229 91.8293 9.2217 91.5333 9.5635C91.2373 9.9007 90.8773 10.165 90.4533 10.3564C90.0293 10.5433 89.5483 10.6367 89.0103 10.6367C88.4683 10.6367 87.9833 10.5433 87.5543 10.3564C87.1313 10.165 86.7713 9.9007 86.4743 9.5635C86.1783 9.2217 85.9523 8.8229 85.7983 8.3672C85.6433 7.9115 85.5653 7.417 85.5653 6.8838ZM87.2133 6.7266V6.8838C87.2133 7.2165 87.2473 7.5309 87.3153 7.8271C87.3833 8.1234 87.4913 8.3831 87.6363 8.6064C87.7823 8.8298 87.9693 9.0052 88.1973 9.1328C88.4253 9.2604 88.6963 9.3242 89.0103 9.3242C89.3163 9.3242 89.5803 9.2604 89.8033 9.1328C90.0313 9.0052 90.2183 8.8298 90.3643 8.6064C90.5103 8.3831 90.6173 8.1234 90.6853 7.8271C90.7583 7.5309 90.7953 7.2165 90.7953 6.8838V6.7266C90.7953 6.3984 90.7583 6.0885 90.6853 5.7969C90.6173 5.5007 90.5083 5.2386 90.3573 5.0107C90.2113 4.7829 90.0243 4.6051 89.7973 4.4775C89.5733 4.3454 89.3073 4.2793 88.9973 4.2793C88.6873 4.2793 88.4183 4.3454 88.1903 4.4775C87.9673 4.6051 87.7823 4.7829 87.6363 5.0107C87.4913 5.2386 87.3833 5.5007 87.3153 5.7969C87.2473 6.0885 87.2133 6.3984 87.2133 6.7266ZM93.5083 6.8838V6.7266C93.5083 6.1934 93.5863 5.6989 93.7413 5.2432C93.8963 4.7829 94.1193 4.3841 94.4113 4.0469C94.7073 3.7051 95.0673 3.4408 95.4913 3.2539C95.9193 3.0625 96.4023 2.9668 96.9403 2.9668C97.4823 2.9668 97.9663 3.0625 98.3893 3.2539C98.8183 3.4408 99.1803 3.7051 99.4763 4.0469C99.7723 4.3841 99.9983 4.7829 100.153 5.2432C100.308 5.6989 100.385 6.1934 100.385 6.7266V6.8838C100.385 7.417 100.308 7.9115 100.153 8.3672C99.9983 8.8229 99.7723 9.2217 99.4763 9.5635C99.1803 9.9007 98.8203 10.165 98.3963 10.3564C97.9723 10.5433 97.4923 10.6367 96.9543 10.6367C96.4113 10.6367 95.9263 10.5433 95.4983 10.3564C95.0743 10.165 94.7143 9.9007 94.4183 9.5635C94.1213 9.2217 93.8963 8.8229 93.7413 8.3672C93.5863 7.9115 93.5083 7.417 93.5083 6.8838ZM95.1563 6.7266V6.8838C95.1563 7.2165 95.1903 7.5309 95.2583 7.8271C95.3273 8.1234 95.4343 8.3831 95.5803 8.6064C95.7263 8.8298 95.9123 9.0052 96.1403 9.1328C96.3683 9.2604 96.6393 9.3242 96.9543 9.3242C97.2593 9.3242 97.5233 9.2604 97.7473 9.1328C97.9753 9.0052 98.1613 8.8298 98.3073 8.6064C98.4533 8.3831 98.5603 8.1234 98.6293 7.8271C98.7023 7.5309 98.7383 7.2165 98.7383 6.8838V6.7266C98.7383 6.3984 98.7023 6.0885 98.6293 5.7969C98.5603 5.5007 98.4513 5.2386 98.3003 5.0107C98.1553 4.7829 97.9683 4.6051 97.7403 4.4775C97.5173 4.3454 97.2503 4.2793 96.9403 4.2793C96.6303 4.2793 96.3613 4.3454 96.1333 4.4775C95.9103 4.6051 95.7263 4.7829 95.5803 5.0107C95.4343 5.2386 95.3273 5.5007 95.2583 5.7969C95.1903 6.0885 95.1563 6.3984 95.1563 6.7266ZM106.504 3.1035H108.001V10.2949C108.001 10.9603 107.859 11.5254 107.577 11.9902C107.294 12.4551 106.9 12.8083 106.394 13.0498C105.888 13.2959 105.303 13.4189 104.637 13.4189C104.355 13.4189 104.04 13.3779 103.694 13.2959C103.352 13.2139 103.02 13.0817 102.696 12.8994C102.377 12.7217 102.11 12.487 101.896 12.1953L102.669 11.2246C102.933 11.5391 103.225 11.7692 103.544 11.915C103.863 12.0609 104.198 12.1338 104.549 12.1338C104.927 12.1338 105.248 12.0632 105.512 11.9219C105.781 11.7852 105.989 11.5824 106.134 11.3135C106.28 11.0446 106.353 10.7165 106.353 10.3291V4.7783L106.504 3.1035ZM101.479 6.8838V6.7402C101.479 6.1797 101.548 5.6693 101.684 5.209C101.821 4.7441 102.017 4.3454 102.272 4.0127C102.527 3.6755 102.837 3.418 103.202 3.2402C103.566 3.0579 103.979 2.9668 104.439 2.9668C104.918 2.9668 105.326 3.0534 105.663 3.2266C106.005 3.3997 106.289 3.6481 106.517 3.9717C106.745 4.2907 106.923 4.6735 107.05 5.1201C107.183 5.5622 107.281 6.0544 107.344 6.5967V7.0547C107.285 7.5833 107.185 8.0664 107.044 8.5039C106.902 8.9414 106.716 9.3197 106.483 9.6387C106.251 9.9577 105.964 10.2038 105.622 10.377C105.285 10.5501 104.886 10.6367 104.425 10.6367C103.974 10.6367 103.566 10.5433 103.202 10.3564C102.842 10.1696 102.532 9.9076 102.272 9.5703C102.017 9.2331 101.821 8.8366 101.684 8.3809C101.548 7.9206 101.479 7.4215 101.479 6.8838ZM103.127 6.7402V6.8838C103.127 7.221 103.159 7.5355 103.222 7.8271C103.291 8.1188 103.393 8.3763 103.53 8.5996C103.671 8.8184 103.849 8.9915 104.063 9.1191C104.282 9.2422 104.539 9.3037 104.836 9.3037C105.223 9.3037 105.54 9.2217 105.786 9.0576C106.036 8.8936 106.228 8.6725 106.36 8.3945C106.497 8.112 106.592 7.7975 106.647 7.4512V6.2139C106.62 5.945 106.563 5.6943 106.476 5.4619C106.394 5.2295 106.283 5.0267 106.141 4.8535C106 4.6758 105.822 4.5391 105.608 4.4434C105.394 4.3431 105.141 4.293 104.849 4.293C104.553 4.293 104.296 4.3568 104.077 4.4844C103.858 4.612 103.678 4.7874 103.537 5.0107C103.4 5.234 103.298 5.4938 103.229 5.79C103.161 6.0863 103.127 6.403 103.127 6.7402ZM111.473 0V10.5H109.819V0H111.473ZM116.539 10.6367C115.992 10.6367 115.497 10.5479 115.055 10.3701C114.618 10.1878 114.244 9.9349 113.934 9.6113C113.629 9.2878 113.394 8.9072 113.23 8.4697C113.066 8.0322 112.984 7.5605 112.984 7.0547V6.7812C112.984 6.2025 113.068 5.6784 113.237 5.209C113.406 4.7396 113.64 4.3385 113.941 4.0059C114.242 3.6686 114.597 3.4111 115.008 3.2334C115.418 3.0557 115.862 2.9668 116.341 2.9668C116.869 2.9668 117.332 3.0557 117.728 3.2334C118.125 3.4111 118.453 3.6618 118.713 3.9854C118.977 4.3044 119.173 4.6849 119.3 5.127C119.433 5.569 119.499 6.0566 119.499 6.5898V7.2939H113.784V6.1113H117.872V5.9814C117.863 5.6852 117.803 5.4072 117.694 5.1475C117.589 4.8877 117.427 4.6781 117.209 4.5186C116.99 4.359 116.698 4.2793 116.334 4.2793C116.06 4.2793 115.816 4.3385 115.602 4.457C115.393 4.571 115.217 4.7373 115.076 4.9561C114.935 5.1748 114.825 5.4391 114.748 5.749C114.675 6.0544 114.638 6.3984 114.638 6.7812V7.0547C114.638 7.3783 114.682 7.679 114.768 7.957C114.859 8.2305 114.992 8.4697 115.165 8.6748C115.338 8.8799 115.548 9.0417 115.794 9.1602C116.04 9.2741 116.32 9.3311 116.634 9.3311C117.031 9.3311 117.384 9.2513 117.694 9.0918C118.004 8.9323 118.273 8.7067 118.501 8.415L119.369 9.2559C119.209 9.4883 119.002 9.7116 118.747 9.9258C118.492 10.1354 118.179 10.3063 117.81 10.4385C117.446 10.5706 117.022 10.6367 116.539 10.6367Z" fill="black"/>
</svg>
